<?xml version="1.0" encoding="UTF-8" standalone="no"?>
<svg
   xmlns:dc="http://purl.org/dc/elements/1.1/"
   xmlns:cc="http://creativecommons.org/ns#"
   xmlns:rdf="http://www.w3.org/1999/02/22-rdf-syntax-ns#"
   xmlns:svg="http://www.w3.org/2000/svg"
   xmlns="http://www.w3.org/2000/svg"
   xmlns:sodipodi="http://sodipodi.sourceforge.net/DTD/sodipodi-0.dtd"
   xmlns:inkscape="http://www.inkscape.org/namespaces/inkscape"
   id="Layer_1"
   data-name="Layer 1"
   viewBox="0 0 2223.01 767.33"
   version="1.1"
   sodipodi:docname="Logo_center.svg"
   inkscape:version="0.92.1 r15371">
  <metadata
     id="metadata105">
    <rdf:RDF>
      <cc:Work
         rdf:about="">
        <dc:format>image/svg+xml</dc:format>
        <dc:type
           rdf:resource="http://purl.org/dc/dcmitype/StillImage" />
        <dc:title>COVACAP Logo</dc:title>
      </cc:Work>
    </rdf:RDF>
  </metadata>
  <sodipodi:namedview
     pagecolor="#ffffff"
     bordercolor="#666666"
     borderopacity="1"
     objecttolerance="10"
     gridtolerance="10"
     guidetolerance="10"
     inkscape:pageopacity="0"
     inkscape:pageshadow="2"
     inkscape:window-width="1920"
     inkscape:window-height="1000"
     id="namedview103"
     showgrid="false"
     inkscape:zoom="0.17633749"
     inkscape:cx="1111.505"
     inkscape:cy="837.34053"
     inkscape:window-x="-11"
     inkscape:window-y="-11"
     inkscape:window-maximized="1"
     inkscape:current-layer="Layer_1" />
  <defs
     id="defs4">
    <style
       id="style2">.cls-1{fill:none;}.cls-2{fill:#96aed7;}.cls-3{fill:#5770b3;}.cls-4{opacity:0.4;}.cls-5{fill:#576eb4;}</style>
  </defs>
  <title
     id="title6">COVACAP Logo</title>
  <rect
     class="cls-1"
     x="1592.94"
     width="630.06"
     height="580.45"
     id="rect8" />
  <path
     class="cls-2"
     d="m 479.74125,524.76677 q 19.11296,15.12099 50.31957,15.09389 43.38752,0 69.40758,-33.94092 31.23154,-43.35766 31.23154,-124.45004 0,-79.19548 -31.23154,-124.45004 -26.03252,-32.04402 -71.1406,-32.05757 -31.23154,0 -48.62395,13.19698 -15.62201,13.21054 -15.62201,39.60452 h -39.89658 q 0,-30.14713 24.28704,-62.2318 26.03252,-28.29087 81.55111,-28.29087 64.20856,0 104.10514,49.02126 41.64205,47.15145 41.64205,145.19397 0,96.19981 -41.64205,145.19397 -39.89658,49.06191 -104.10514,49.03481 -57.26406,0 -85.01711,-33.94092 -20.82104,-26.38043 -20.82104,-56.5682 h 39.89658 q 0.0499,24.52417 15.65941,39.59096 z"
     id="path10"
     inkscape:connector-curvature="0"
     style="fill:#96aed7;stroke-width:1.29972291" />
  <path
     class="cls-3"
     d="m 518.55315,486.40879 h 39.89657 q 0,30.18777 -20.82103,56.5682 -27.77799,33.94092 -85.01712,33.94092 -64.22102,0 -104.1176,-49.03481 -41.64205,-49.02125 -41.64205,-145.19397 0,-98.02896 41.64205,-145.19397 39.89658,-49.00771 104.1176,-49.02126 55.50612,0 81.55111,28.29088 24.27458,32.08467 24.28704,62.23179 h -39.89657 q 0,-26.38043 -15.62202,-39.60451 -17.36747,-13.16989 -48.62395,-13.19699 -45.14547,0 -71.14059,32.05757 -31.23154,45.25456 -31.23154,124.45004 0,81.10593 31.23154,124.45004 26.03252,33.94092 69.40759,33.94092 31.23154,0 50.31956,-15.09388 15.65941,-15.05324 15.65941,-39.59097 z"
     id="path12"
     inkscape:connector-curvature="0"
     style="fill:#5770b3;stroke-width:1.29972291" />
  <g
     class="cls-4"
     id="g42"
     transform="matrix(1.2467681,0,0,1.3549269,313.14809,-466.01001)"
     style="opacity:0.4">
    <path
       class="cls-5"
       d="m 232.87,334.37 3.48,0.73 c 0.52,-2.41 1,-4.85 1.65,-7.2 l -3.43,-0.91 c -0.64,2.48 -1.16,4.91 -1.7,7.38 z"
       transform="translate(-128.92,220.27)"
       id="path14"
       inkscape:connector-curvature="0"
       style="fill:#576eb4" />
    <path
       class="cls-5"
       d="m 230.81,345.39 3.5,0.59 c 0.44,-2.44 0.83,-4.89 1.33,-7.32 l -3.49,-0.68 c -0.51,2.46 -0.89,4.94 -1.34,7.41 z"
       transform="translate(-128.92,220.27)"
       id="path16"
       inkscape:connector-curvature="0"
       style="fill:#576eb4" />
    <path
       class="cls-5"
       d="m 229.12,356.46 3.52,0.48 c 0.3,-2.46 0.73,-4.91 1.09,-7.36 l -3.51,-0.56 c -0.36,2.48 -0.79,4.98 -1.1,7.44 z"
       transform="translate(-128.92,220.27)"
       id="path18"
       inkscape:connector-curvature="0"
       style="fill:#576eb4" />
    <polygon
       class="cls-5"
       points="99.74,580.38 99.27,584.11 98.88,587.85 102.42,588.22 102.8,584.51 103.27,580.82 "
       id="polygon20"
       style="fill:#576eb4" />
    <path
       class="cls-5"
       d="m 226.8,378.73 3.54,0.27 0.26,-3.71 c 0.1,-1.24 0.24,-2.47 0.36,-3.71 l -3.54,-0.34 c -0.12,1.25 -0.26,2.49 -0.36,3.74 z"
       transform="translate(-128.92,220.27)"
       id="path22"
       inkscape:connector-curvature="0"
       style="fill:#576eb4" />
    <path
       class="cls-5"
       d="m 226.14,389.91 3.55,0.16 0.15,-3.72 c 0.06,-1.24 0.17,-2.48 0.25,-3.71 l -3.55,-0.23 c -0.08,1.25 -0.19,2.5 -0.25,3.75 z"
       transform="translate(-128.92,220.27)"
       id="path24"
       inkscape:connector-curvature="0"
       style="fill:#576eb4" />
    <path
       class="cls-5"
       d="m 225.8,401.1 3.55,0.05 c 0,-1.24 0,-2.48 0,-3.72 l 0.15,-3.72 -3.55,-0.12 -0.15,3.76 c 0,1.24 0.02,2.5 0,3.75 z"
       transform="translate(-128.92,220.27)"
       id="path26"
       inkscape:connector-curvature="0"
       style="fill:#576eb4" />
    <path
       class="cls-5"
       d="m 225.8,412.3 3.55,-0.06 c -0.1,-2.48 0,-5 0,-7.44 h -3.55 c -0.01,2.49 -0.11,4.99 0,7.5 z"
       transform="translate(-128.92,220.27)"
       id="path28"
       inkscape:connector-curvature="0"
       style="fill:#576eb4" />
    <polygon
       class="cls-5"
       points="97.23,643.76 100.78,643.59 100.55,636.15 97,636.25 "
       id="polygon30"
       style="fill:#576eb4" />
    <polygon
       class="cls-5"
       points="98,654.94 101.55,654.65 101.01,647.22 97.47,647.43 "
       id="polygon32"
       style="fill:#576eb4" />
    <polygon
       class="cls-5"
       points="99.14,666.08 102.67,665.67 101.81,658.28 98.27,658.61 "
       id="polygon34"
       style="fill:#576eb4" />
    <path
       class="cls-5"
       d="m 229.55,456.92 3.51,-0.54 -0.6,-3.67 c -0.19,-1.22 -0.3,-2.46 -0.45,-3.69 l -3.52,0.45 c 0.16,1.24 0.26,2.49 0.46,3.73 z"
       transform="translate(-128.92,220.27)"
       id="path36"
       inkscape:connector-curvature="0"
       style="fill:#576eb4" />
    <path
       class="cls-5"
       d="m 231.39,468 3.49,-0.67 c -0.45,-2.44 -0.82,-4.89 -1.23,-7.34 l -3.51,0.58 c 0.42,2.43 0.79,4.95 1.25,7.43 z"
       transform="translate(-128.92,220.27)"
       id="path38"
       inkscape:connector-curvature="0"
       style="fill:#576eb4" />
    <polygon
       class="cls-5"
       points="104.86,699.2 108.32,698.4 106.74,691.13 103.26,691.85 "
       id="polygon40"
       style="fill:#576eb4" />
  </g>
  <path
     class="cls-5"
     d="m 543.03967,288.75205 4.33875,-0.9891 c -0.66078,-3.33312 -1.32157,-6.63914 -2.10703,-9.99936 l -4.27642,1.23298 c 0.7356,3.17053 1.39638,6.47655 2.0447,9.75548 z"
     id="path44"
     inkscape:connector-curvature="0"
     style="fill:#576eb4;stroke-width:1.29972291" />
  <path
     class="cls-5"
     d="m 545.58308,303.49365 4.36368,-0.79941 c -0.56104,-3.34666 -1.03481,-6.69333 -1.68314,-10.02645 l -4.35121,0.92135 c 0.63585,3.27892 1.10962,6.59849 1.67067,9.90451 z"
     id="path46"
     inkscape:connector-curvature="0"
     style="fill:#576eb4;stroke-width:1.29972291" />
  <path
     class="cls-5"
     d="m 547.64024,318.3301 4.38863,-0.65036 c -0.37403,-3.37377 -0.92261,-6.77464 -1.37144,-10.08066 l -4.37617,0.75876 c 0.47377,3.31957 0.99742,6.63914 1.35898,9.97226 z"
     id="path48"
     inkscape:connector-curvature="0"
     style="fill:#576eb4;stroke-width:1.29972291" />
  <polygon
     class="cls-5"
     points="188.56,582.5 189.03,586.19 189.41,589.89 192.94,589.52 192.56,585.78 192.09,582.05 "
     id="polygon50"
     transform="matrix(1.2467681,0,0,1.3549269,313.14809,-466.01001)"
     style="fill:#576eb4" />
  <path
     class="cls-5"
     d="m 550.52028,348.20624 4.41356,-0.36583 -0.33663,-5.08098 c -0.12468,-1.69365 -0.29922,-3.37376 -0.44884,-5.06742 l -4.41356,0.46067 c 0.14962,1.68011 0.32416,3.34667 0.44883,5.01323 z"
     id="path52"
     inkscape:connector-curvature="0"
     style="fill:#576eb4;stroke-width:1.29972291" />
  <path
     class="cls-5"
     d="m 551.38055,363.20528 4.42602,-0.21679 -0.18701,-5.09452 c -0.0873,-1.69366 -0.21195,-3.38732 -0.3117,-5.08098 l -4.42602,0.31164 c 0.0997,1.68011 0.23689,3.34667 0.31169,5.02677 z"
     id="path54"
     inkscape:connector-curvature="0"
     style="fill:#576eb4;stroke-width:1.29972291" />
  <path
     class="cls-5"
     d="m 551.75458,378.21787 4.42602,-0.0677 c 0,-1.69366 0,-3.40087 0,-5.09453 l -0.18701,-5.08097 -4.42603,0.16259 0.18702,5.04032 c 0.0125,1.68011 -0.0125,3.36022 0,5.04033 z"
     id="path56"
     inkscape:connector-curvature="0"
     style="fill:#576eb4;stroke-width:1.29972291" />
  <path
     class="cls-5"
     d="m 551.76705,393.24401 4.42602,0.0813 c 0.12468,-3.40087 0,-6.77464 0,-10.18905 h -4.42602 c 0,3.38732 0.12467,6.74753 0,10.10775 z"
     id="path58"
     inkscape:connector-curvature="0"
     style="fill:#576eb4;stroke-width:1.29972291" />
  <polygon
     class="cls-5"
     points="191.04,645.24 194.59,645.42 194.83,637.9 191.28,637.8 "
     id="polygon60"
     transform="matrix(1.2467681,0,0,1.3549269,313.14809,-466.01001)"
     style="fill:#576eb4" />
  <polygon
     class="cls-5"
     points="190.28,656.3 193.82,656.59 194.36,649.09 190.81,648.88 "
     id="polygon62"
     transform="matrix(1.2467681,0,0,1.3549269,313.14809,-466.01001)"
     style="fill:#576eb4" />
  <polygon
     class="cls-5"
     points="189.16,667.32 192.69,667.73 193.55,660.26 190.01,659.93 "
     id="polygon64"
     transform="matrix(1.2467681,0,0,1.3549269,313.14809,-466.01001)"
     style="fill:#576eb4" />
  <path
     class="cls-5"
     d="m 547.14154,452.99629 4.37615,0.73166 0.76053,-5.02678 c 0.24936,-1.68011 0.37403,-3.37377 0.57351,-5.05387 l -4.38862,-0.60972 c -0.18701,1.66656 -0.32416,3.34667 -0.56105,4.99968 z"
     id="path66"
     inkscape:connector-curvature="0"
     style="fill:#576eb4;stroke-width:1.29972291" />
  <path
     class="cls-5"
     d="m 544.87242,467.90049 4.35122,0.9078 c 0.57351,-3.34667 1.03482,-6.70689 1.55846,-10.05356 l -4.37615,-0.78586 c -0.51118,3.23828 -0.97249,6.5714 -1.53353,9.93162 z"
     id="path68"
     inkscape:connector-curvature="0"
     style="fill:#576eb4;stroke-width:1.29972291" />
  <polygon
     class="cls-5"
     points="183.51,700.03 186.97,700.84 188.57,693.49 185.09,692.77 "
     id="polygon70"
     transform="matrix(1.2467681,0,0,1.3549269,313.14809,-466.01001)"
     style="fill:#576eb4" />
  <path
     class="cls-3"
     d="m 739.89189,374.41053 c 0,-44.98358 30.73283,-70.03618 61.47813,-70.03618 28.28917,0 48.20009,16.70625 54.48375,42.7073 l -15.89628,6.07007 c -4.71277,-20.3239 -18.33995,-31.69174 -38.64981,-31.69174 -22.52909,0 -44.01091,17.84439 -44.01091,52.95055 0,35.10616 21.48182,53.14023 44.01091,53.14023 21.13273,0 34.41081,-13.8609 39.47268,-32.26081 l 15.19806,6.07008 c -6.63281,25.24228 -26.18209,43.27636 -54.65827,43.27636 -31.91726,0.0407 -61.42826,-25.20164 -61.42826,-70.22586 z"
     id="path72"
     inkscape:connector-curvature="0"
     style="fill:#5770b3;stroke-width:1.29972291" />
  <path
     class="cls-3"
     d="m 948.93745,396.08936 c 0,27.89795 -17.8163,48.58768 -42.9636,48.58768 -25.1473,0 -42.90127,-20.68973 -42.90127,-48.58768 0,-27.89795 17.81627,-48.39799 42.96357,-48.39799 25.1474,0 42.9013,20.68973 42.9013,48.39799 z m -16.769,0 c 0,-21.06911 -12.2308,-32.51825 -26.1821,-32.51825 -13.9514,0 -26.1822,11.38139 -26.1822,32.51825 0,21.13686 12.2308,32.64019 26.1822,32.64019 13.9513,0 26.1821,-11.38139 26.1821,-32.64019 z"
     id="path74"
     inkscape:connector-curvature="0"
     style="fill:#5770b3;stroke-width:1.29972291" />
  <path
     class="cls-3"
     d="m 1002.1994,441.83169 h -16.59445 l -34.0118,-91.29497 h 18.5145 l 23.9255,70.4562 24.09985,-70.4562 h 17.6418 z"
     id="path76"
     inkscape:connector-curvature="0"
     style="fill:#5770b3;stroke-width:1.29972291" />
  <path
     class="cls-3"
     d="m 1067.343,389.63991 22.6413,-3.60411 c 5.0618,-0.75876 6.4582,-3.6041 6.4582,-6.77463 0,-8.91542 -5.4109,-16.25913 -18.1653,-16.25913 -11.5327,0 -17.9909,7.77728 -19.0382,18.41346 l -15.7217,-3.98348 c 1.7454,-17.46501 16.2079,-29.60516 34.4107,-29.60516 25.1473,0 34.9095,15.56811 34.9095,33.39895 v 45.74233 a 79.007696,85.861721 0 0 0 1.0473,14.99905 h -15.9835 a 61.415797,66.743701 0 0 1 -0.8728,-12.32984 c -3.6654,6.44945 -12.0562,15.18873 -27.0673,15.18873 -17.1181,0 -28.1147,-12.91245 -28.1147,-27.32887 0,-16.47592 10.9966,-25.58103 25.4965,-27.8573 z m 29.1619,13.10214 v -4.17317 l -25.6709,4.17317 c -6.982,1.13814 -12.2309,5.501 -12.2309,13.65766 0,6.77464 5.2365,13.29184 13.6272,13.29184 13.4526,-0.0136 24.2746,-7.03207 24.2746,-26.96305 z"
     id="path78"
     inkscape:connector-curvature="0"
     style="fill:#5770b3;stroke-width:1.29972291" />
  <path
     class="cls-3"
     d="M 1134.868,441.83169 V 304.415 h 16.4199 v 137.41669 z"
     id="path80"
     inkscape:connector-curvature="0"
     style="fill:#5770b3;stroke-width:1.29972291" />
  <path
     class="cls-3"
     d="m 1248.9722,415.83065 c -4.7128,16.13718 -18.1655,28.84639 -37.7272,28.84639 -22.5292,0 -42.2655,-17.84439 -42.2655,-48.77737 0,-28.65671 19.0381,-48.2083 40.1709,-48.2083 25.8455,0 40.3454,19.36191 40.3454,47.82892 a 36.866933,40.06519 0 0 1 -0.3491,5.69069 h -63.2236 c 0.3491,16.25913 11.2209,27.70826 25.3219,27.70826 13.6271,0 20.4345,-8.12956 23.5763,-18.41346 z m -16.5945,-29.03609 c -0.3492,-13.10214 -8.2038,-23.34539 -23.0528,-23.34539 -13.8017,0 -22.18,11.57108 -22.8781,23.34539 z"
     id="path82"
     inkscape:connector-curvature="0"
     style="fill:#5770b3;stroke-width:1.29972291" />
  <path
     class="cls-3"
     d="m 1283.3705,441.83169 h -16.4199 v -91.29497 h 16.0708 v 13.03439 c 6.1091,-11.39493 16.0708,-15.7578 25.8455,-15.7578 20.0855,0 30.0347,15.7578 30.0347,36.06816 v 57.88248 h -16.42 v -54.7797 c 0,-12.72276 -4.8873,-22.96601 -19.5617,-22.96601 -12.9291,0 -19.5619,11.1917 -19.5619,25.0526 z"
     id="path84"
     inkscape:connector-curvature="0"
     style="fill:#5770b3;stroke-width:1.29972291" />
  <path
     class="cls-3"
     d="m 1383.6106,350.53672 h 18.1654 v 16.13718 h -18.1654 v 47.42244 c 0,8.34635 3.1419,12.53307 11.7072,12.53307 a 33.213903,36.095254 0 0 0 6.4582,-0.75876 v 15.20228 a 35.906922,39.021896 0 0 1 -11.2209,1.70721 c -14.3253,0 -23.4018,-9.48449 -23.4018,-26.00105 V 366.6468 h -16.021 v -16.11008 h 4.5382 c 9.0766,0 12.9291,-6.07008 12.9291,-14.0506 v -14.7958 h 14.9612 z"
     id="path86"
     inkscape:connector-curvature="0"
     style="fill:#5770b3;stroke-width:1.29972291" />
  <path
     class="cls-3"
     d="m 1454.1652,374.41053 c 0,-44.98358 30.7329,-70.03618 61.4782,-70.03618 28.2891,0 48.2,16.70625 54.4838,42.7073 l -15.8963,6.07007 c -4.7128,-20.3239 -18.34,-31.69174 -38.6499,-31.69174 -22.5291,0 -44.0109,17.84439 -44.0109,52.95055 0,35.10616 21.4818,53.14023 44.0109,53.14023 21.1951,0 34.4109,-13.8609 39.4727,-32.26081 l 15.1981,6.07008 c -6.6328,25.24228 -26.1821,43.27636 -54.6583,43.27636 -31.9172,0.0407 -61.4283,-25.20164 -61.4283,-70.22586 z"
     id="path88"
     inkscape:connector-curvature="0"
     style="fill:#5770b3;stroke-width:1.29972291" />
  <path
     class="cls-3"
     d="m 1604.5379,389.63991 22.7037,-3.60411 c 5.0619,-0.75876 6.4582,-3.6041 6.4582,-6.77463 0,-8.91542 -5.4109,-16.25913 -18.1653,-16.25913 -11.5327,0 -17.9909,7.77728 -19.0382,18.41346 l -15.7217,-3.98348 c 1.7454,-17.46501 16.2079,-29.60516 34.3983,-29.60516 25.1473,0 34.9095,15.56811 34.9095,33.39895 v 45.74233 a 78.98276,85.834622 0 0 0 1.0473,14.99905 h -16.0709 a 61.440733,66.7708 0 0 1 -0.8727,-12.32984 c -3.6655,6.44945 -12.0563,15.18873 -27.0673,15.18873 -17.1181,0 -28.1147,-12.91245 -28.1147,-27.32887 0.038,-16.47592 11.0339,-25.58103 25.5338,-27.8573 z m 29.1619,13.10214 v -4.17317 l -25.6709,4.17317 c -6.9819,1.13814 -12.2308,5.501 -12.2308,13.65766 0,6.77464 5.2364,13.29184 13.6272,13.29184 13.4526,-0.0136 24.2745,-7.03207 24.2745,-26.96305 z"
     id="path90"
     inkscape:connector-curvature="0"
     style="fill:#5770b3;stroke-width:1.29972291" />
  <path
     class="cls-3"
     d="M 1668.6219,477.8863 V 350.52317 h 15.8962 v 14.22673 c 4.5382,-9.10511 14.4999,-16.25912 28.1147,-16.25912 25.1473,0 38.6497,21.06911 38.6497,47.63923 0,27.09854 -14.4998,48.2083 -39.1235,48.2083 -12.929,0 -22.7037,-6.63914 -27.2419,-14.80935 v 48.39799 z m 41.0062,-113.67837 c -14.9613,0 -24.9354,13.67121 -24.9354,31.88143 0,18.79284 9.9741,32.26081 24.9354,32.26081 14.9612,0 24.7982,-13.48152 24.7982,-32.26081 0.038,-18.22377 -9.3882,-31.88143 -24.7982,-31.88143 z"
     id="path92"
     inkscape:connector-curvature="0"
     style="fill:#5770b3;stroke-width:1.29972291" />
  <path
     class="cls-3"
     d="m 1773.2132,303.08717 a 11.794426,12.817609 0 1 1 -11.6947,12.91246 11.781959,12.80406 0 0 1 11.6947,-12.91246 z m -8.0291,138.74452 v -91.29497 h 16.2079 v 91.29497 z"
     id="path94"
     inkscape:connector-curvature="0"
     style="fill:#5770b3;stroke-width:1.29972291" />
  <path
     class="cls-3"
     d="m 1827.8964,350.53672 h 18.1655 v 16.13718 h -18.1655 v 47.42244 c 0,8.34635 3.1419,12.53307 11.6948,12.53307 a 33.22637,36.108803 0 0 0 6.4582,-0.75876 v 15.20228 a 35.906922,39.021896 0 0 1 -11.2209,1.70721 c -14.3254,0 -23.4018,-9.48449 -23.4018,-26.00105 V 366.6468 h -16.021 v -16.11008 h 4.5382 c 9.0765,0 12.929,-6.07008 12.929,-14.0506 v -14.7958 h 14.9612 z"
     id="path96"
     inkscape:connector-curvature="0"
     style="fill:#5770b3;stroke-width:1.29972291" />
  <path
     class="cls-3"
     d="m 1884.6493,389.63991 22.7037,-3.60411 c 5.0618,-0.75876 6.4582,-3.6041 6.4582,-6.77463 0,-8.91542 -5.411,-16.25913 -18.1654,-16.25913 -11.5325,0 -17.9909,7.77728 -19.0381,18.41346 l -15.7217,-3.98348 c 1.7454,-17.46501 16.2079,-29.60516 34.3983,-29.60516 25.1473,0 34.9095,15.56811 34.9095,33.39895 v 45.74233 a 78.98276,85.834622 0 0 0 1.0473,14.99905 h -16.0708 a 61.440733,66.7708 0 0 1 -0.8728,-12.32984 c -3.6655,6.44945 -12.0563,15.18873 -27.0673,15.18873 -17.1182,0 -28.1147,-12.91245 -28.1147,-27.32887 0.038,-16.47592 11.034,-25.58103 25.5338,-27.8573 z m 29.1619,13.10214 v -4.17317 l -25.6709,4.17317 c -6.9819,1.13814 -12.2184,5.501 -12.2184,13.65766 0,6.77464 5.2365,13.29184 13.6273,13.29184 13.4402,-0.0136 24.262,-7.03207 24.262,-26.96305 z"
     id="path98"
     inkscape:connector-curvature="0"
     style="fill:#5770b3;stroke-width:1.29972291" />
  <path
     class="cls-3"
     d="M 1952.2366,441.83169 V 304.415 h 16.42 v 137.41669 z"
     id="path100"
     inkscape:connector-curvature="0"
     style="fill:#5770b3;stroke-width:1.29972291" />
</svg>
